HIERARCHY
ROOT Hips
{
    OFFSET   0.000000   0.000000   0.000000
    CHANNELS 6 Xposition Yposition Zposition Zrotation Xrotation Yrotation
    JOINT Chest
    {
        OFFSET   0.000000   8.007230   0.000000
        CHANNELS 3 Zrotation Xrotation Yrotation
        JOINT Chest2
        {
            OFFSET   0.000000  22.077100   0.000000
            CHANNELS 3 Zrotation Xrotation Yrotation
            JOINT Neck
            {
                OFFSET   0.000000  23.255100   0.000000
                CHANNELS 3 Zrotation Xrotation Yrotation
                JOINT Head
                {
                    OFFSET   0.000000  14.370100   1.956600
                    CHANNELS 3 Zrotation Xrotation Yrotation
                    End Site
                    {
                        OFFSET   0.000000  19.566000   0.000000
                    }
                }
            }
            JOINT LeftCollar
            {
                OFFSET   3.911900  19.017000  -0.467063
                CHANNELS 3 Zrotation Xrotation Yrotation
                JOINT LeftShoulder
                {
                    OFFSET  10.383700   0.000000   0.000000
                    CHANNELS 3 Zrotation Xrotation Yrotation
                    JOINT LeftElbow
                    {
                        OFFSET  26.662100   0.001193   0.000980
                        CHANNELS 3 Zrotation Xrotation Yrotation
                        JOINT LeftWrist
                        {
                            OFFSET  28.869000  -0.000059  -0.000082
                            CHANNELS 3 Zrotation Xrotation Yrotation
                            JOINT LeftFinger0
                            {
                                OFFSET   2.044650  -2.323450   3.252850
                                CHANNELS 3 Zrotation Xrotation Yrotation
                                JOINT LeftFinger01
                                {
                                    OFFSET   3.088130   0.000000   0.000000
                                    CHANNELS 3 Zrotation Xrotation Yrotation
                                    JOINT LeftFinger02
                                    {
                                        OFFSET   2.639460   0.000000   0.000000
                                        CHANNELS 3 Zrotation Xrotation Yrotation
                                        End Site
                                        {
                                            OFFSET   2.582190   0.000000   0.000000
                                        }
                                    }
                                }
                            }
                            JOINT LeftFinger1
                            {
                                OFFSET   8.364480   0.000000   3.252850
                                CHANNELS 3 Zrotation Xrotation Yrotation
                                JOINT LeftFinger11
                                {
                                    OFFSET   4.646930   0.000000   0.000000
                                    CHANNELS 3 Zrotation Xrotation Yrotation
                                    JOINT LeftFinger12
                                    {
                                        OFFSET   2.323470   0.000000   0.000000
                                        CHANNELS 3 Zrotation Xrotation Yrotation
                                        End Site
                                        {
                                            OFFSET   2.273050   0.000000   0.000000
                                        }
                                    }
                                }
                            }
                            JOINT LeftFinger2
                            {
                                OFFSET   8.364490   0.000016   1.078090
                                CHANNELS 3 Zrotation Xrotation Yrotation
                                JOINT LeftFinger21
                                {
                                    OFFSET   5.111610   0.000000   0.000000
                                    CHANNELS 3 Zrotation Xrotation Yrotation
                                    JOINT LeftFinger22
                                    {
                                        OFFSET   2.788150   0.000016   0.000000
                                        CHANNELS 3 Zrotation Xrotation Yrotation
                                        End Site
                                        {
                                            OFFSET   2.727660   0.000000   0.000000
                                        }
                                    }
                                }
                            }
                            JOINT LeftFinger3
                            {
                                OFFSET   7.899780   0.000015  -1.078090
                                CHANNELS 3 Zrotation Xrotation Yrotation
                                JOINT LeftFinger31
                                {
                                    OFFSET   4.646930   0.000000   0.000000
                                    CHANNELS 3 Zrotation Xrotation Yrotation
                                    JOINT LeftFinger32
                                    {
                                        OFFSET   2.323470   0.000000   0.000000
                                        CHANNELS 3 Zrotation Xrotation Yrotation
                                        End Site
                                        {
                                            OFFSET   2.273050   0.000000   0.000000
                                        }
                                    }
                                }
                            }
                            JOINT LeftFinger4
                            {
                                OFFSET   7.435090   0.000000  -3.252850
                                CHANNELS 3 Zrotation Xrotation Yrotation
                                JOINT LeftFinger41
                                {
                                    OFFSET   3.717550   0.000000   0.000000
                                    CHANNELS 3 Zrotation Xrotation Yrotation
                                    JOINT LeftFinger42
                                    {
                                        OFFSET   1.858770   0.000000   0.000000
                                        CHANNELS 3 Zrotation Xrotation Yrotation
                                        End Site
                                        {
                                            OFFSET   1.818440   0.000000   0.000000
                                        }
                                    }
                                }
                            }
                        }
                    }
                }
            }
            JOINT RightCollar
            {
                OFFSET  -3.911910  19.017000  -0.467062
                CHANNELS 3 Zrotation Xrotation Yrotation
                JOINT RightShoulder
                {
                    OFFSET -10.383700   0.000014   0.000000
                    CHANNELS 3 Zrotation Xrotation Yrotation
                    JOINT RightElbow
                    {
                        OFFSET -26.662100   0.001225   0.001091
                        CHANNELS 3 Zrotation Xrotation Yrotation
                        JOINT RightWrist
                        {
                            OFFSET -28.869000  -0.000020  -0.000085
                            CHANNELS 3 Zrotation Xrotation Yrotation
                            JOINT RightFinger0
                            {
                                OFFSET  -2.044650  -2.323490   3.252850
                                CHANNELS 3 Zrotation Xrotation Yrotation
                                JOINT RightFinger01
                                {
                                    OFFSET  -3.088130   0.000000   0.000000
                                    CHANNELS 3 Zrotation Xrotation Yrotation
                                    JOINT RightFinger02
                                    {
                                        OFFSET  -2.639460   0.000000   0.000000
                                        CHANNELS 3 Zrotation Xrotation Yrotation
                                        End Site
                                        {
                                            OFFSET  -2.582190   0.000000   0.000000
                                        }
                                    }
                                }
                            }
                            JOINT RightFinger1
                            {
                                OFFSET  -8.364480   0.000000   3.252850
                                CHANNELS 3 Zrotation Xrotation Yrotation
                                JOINT RightFinger11
                                {
                                    OFFSET  -4.646930   0.000000   0.000000
                                    CHANNELS 3 Zrotation Xrotation Yrotation
                                    JOINT RightFinger12
                                    {
                                        OFFSET  -2.323470   0.000000   0.000000
                                        CHANNELS 3 Zrotation Xrotation Yrotation
                                        End Site
                                        {
                                            OFFSET  -2.273050   0.000000   0.000000
                                        }
                                    }
                                }
                            }
                            JOINT RightFinger2
                            {
                                OFFSET  -8.364480   0.000000   1.078090
                                CHANNELS 3 Zrotation Xrotation Yrotation
                                JOINT RightFinger21
                                {
                                    OFFSET  -5.111620   0.000000   0.000000
                                    CHANNELS 3 Zrotation Xrotation Yrotation
                                    JOINT RightFinger22
                                    {
                                        OFFSET  -2.788160   0.000000   0.000000
                                        CHANNELS 3 Zrotation Xrotation Yrotation
                                        End Site
                                        {
                                            OFFSET  -2.727660   0.000000   0.000000
                                        }
                                    }
                                }
                            }
                            JOINT RightFinger3
                            {
                                OFFSET  -7.899780   0.000000  -1.078090
                                CHANNELS 3 Zrotation Xrotation Yrotation
                                JOINT RightFinger31
                                {
                                    OFFSET  -4.646930   0.000000   0.000000
                                    CHANNELS 3 Zrotation Xrotation Yrotation
                                    JOINT RightFinger32
                                    {
                                        OFFSET  -2.323470   0.000000   0.000000
                                        CHANNELS 3 Zrotation Xrotation Yrotation
                                        End Site
                                        {
                                            OFFSET  -2.273050   0.000000   0.000000
                                        }
                                    }
                                }
                            }
                            JOINT RightFinger4
                            {
                                OFFSET  -7.435090   0.000000  -3.252850
                                CHANNELS 3 Zrotation Xrotation Yrotation
                                JOINT RightFinger41
                                {
                                    OFFSET  -3.717550   0.000000   0.000000
                                    CHANNELS 3 Zrotation Xrotation Yrotation
                                    JOINT RightFinger42
                                    {
                                        OFFSET  -1.858760   0.000000   0.000000
                                        CHANNELS 3 Zrotation Xrotation Yrotation
                                        End Site
                                        {
                                            OFFSET  -1.818440   0.000000   0.000000
                                        }
                                    }
                                }
                            }
                        }
                    }
                }
            }
        }
    }
    JOINT LeftHip
    {
        OFFSET   9.783030   0.000000   0.000000
        CHANNELS 3 Zrotation Xrotation Yrotation
        JOINT LeftKnee
        {
            OFFSET   0.000063 -41.789100   0.000608
            CHANNELS 3 Zrotation Xrotation Yrotation
            JOINT LeftAnkle
            {
                OFFSET   0.000048 -41.133200  -0.000184
                CHANNELS 3 Zrotation Xrotation Yrotation
                JOINT LeftToe
                {
                    OFFSET   0.000000  -6.358960  14.674500
                    CHANNELS 3 Zrotation Xrotation Yrotation
                    End Site
                    {
                        OFFSET   0.000000   0.000000   3.913200
                    }
                }
            }
        }
    }
    JOINT RightHip
    {
        OFFSET  -9.783030   0.000000   0.000000
        CHANNELS 3 Zrotation Xrotation Yrotation
        JOINT RightKnee
        {
            OFFSET   0.000071 -41.789100   0.001239
            CHANNELS 3 Zrotation Xrotation Yrotation
            JOINT RightAnkle
            {
                OFFSET   0.000037 -41.133200  -0.000166
                CHANNELS 3 Zrotation Xrotation Yrotation
                JOINT RightToe
                {
                    OFFSET   0.000000  -6.358960  14.674500
                    CHANNELS 3 Zrotation Xrotation Yrotation
                    End Site
                    {
                        OFFSET   0.000000   0.000000   3.913200
                    }
                }
            }
        }
    }
}
MOTION
Frames: 4
Frame Time:   0.016667
 -2.116900  89.509600  -0.153756  -3.871920 -12.256800  -4.975370   1.153830   7.164510  -0.251434   2.367740  14.322400  -0.657368   1.023370  -1.062210   0.015971   1.682930  -2.151950   5.949090  -6.265230  -2.804930   1.181340 -73.525800  13.964000   1.972460  -1.325270  -5.487590 -24.800700  15.658500 -11.376500   7.454520  41.520100  39.229300 -68.784000 -34.246000   0.001942   0.001369 -12.123000  -0.004779  -0.003829 -32.826800   5.048970  -7.768510 -27.139100  -0.007967  -0.001410 -19.007900  -0.004312  -0.001424 -28.536600  -2.010010   3.690290 -37.415100  -0.002566  -0.002889 -24.918500  -0.005496  -0.002927 -28.279400  -1.992990   3.699500 -34.534700  -0.006400  -0.009130 -23.000100  -0.005326  -0.009427 -35.072000  -2.417200   3.437540 -52.716900  -0.006726  -0.001682 -35.109400   0.002946  -0.005025   8.493860  -1.285990   8.241780  71.755100  15.233600  -1.862940  -1.624570  -7.691810  17.639800 -15.558200  -1.036340   1.863340 -36.251500  26.658600  60.397800  30.777000   0.004770  -0.002772  10.388500   0.000000   0.000500  31.672800   6.510540  10.416700  26.400200  -0.000849  -0.005329  18.480200  -0.000236  -0.000121  28.547800   2.929130   5.381420  38.615200  -0.003367  -0.004360  25.709000  -0.001343  -0.000350  28.225300   2.440210   4.537080  34.439100  -0.002975  -0.001663  22.929400  -0.003024  -0.000234  36.043800  -0.010491  -0.014421  54.048300  -0.002400  -0.006386  36.007800  -0.001236  -0.002198   3.118460  14.967200   3.849710   1.882170  -0.000575   8.083060  -2.671510  -3.077280   2.013380  -0.000000   0.000000   0.000000   5.186210  13.709600  -3.860830   0.181788   2.529370  -9.917160  -2.332130  -4.989990   1.855700  -0.000000   0.000000   0.000000
 -2.105660  89.509500  -0.177000  -3.880390 -12.283600  -4.976310   1.155750   7.180670  -0.251541   2.371790  14.354700  -0.657944   1.017770  -1.068340   0.015973   1.673870  -2.164400   5.943540  -6.272180  -2.809770   1.160620 -73.558300  14.035500   2.002700  -1.292730  -5.510590 -24.823500  15.613500 -11.444700   7.420370  41.416300  39.112600 -68.688000 -34.269900   0.001937   0.001387 -12.134900  -0.004774  -0.003810 -32.835700   5.036160  -7.746270 -27.146500  -0.007961  -0.001373 -19.007900  -0.004310  -0.001393 -28.534500  -2.025020   3.717830 -37.407500  -0.002505  -0.002872 -24.913400  -0.005493  -0.002905 -28.277200  -2.008100   3.726970 -34.538400  -0.006412  -0.009143 -23.002500  -0.005326  -0.009437 -35.080700  -2.436720   3.462080 -52.730900  -0.006716  -0.001610 -35.118800   0.002943  -0.004979   8.484620  -1.302980   8.248160  71.754800  15.224600  -1.862850  -1.619520  -7.682430  17.623200 -15.556900  -1.032200   1.855340 -36.239600  26.658900  60.411400  30.792200   0.004773  -0.002768  10.396100   0.000000   0.000500  31.674400   6.506770  10.408600  26.400600  -0.000844  -0.005332  18.480500  -0.000237  -0.000123  28.547700   2.928810   5.381920  38.615600  -0.003365  -0.004357  25.709100  -0.001343  -0.000353  28.225300   2.439920   4.537140  34.436400  -0.002975  -0.001662  22.929400  -0.003024  -0.000234  36.043800  -0.010471  -0.014392  54.055600  -0.002401  -0.006391  36.007800  -0.001235  -0.002198   3.117610  14.984600   3.850450   1.874110  -0.020221   8.080200  -2.657720  -3.051390   2.013350   0.000000   0.000000   0.000000   5.189690  13.725200  -3.861400   0.160919   2.521370  -9.918790  -2.306970  -4.963350   1.851840  -0.000000   0.000000  -0.000000
 -2.084270  89.509400  -0.216563  -3.893790 -12.325800  -4.980160   1.159220   7.208410  -0.252243   2.379340  14.410200  -0.660782   1.008270  -1.078700   0.015983   1.658140  -2.185460   5.938030  -6.291320  -2.814610   1.139900 -73.627100  14.106400   2.116410  -1.197600  -5.527770 -24.976700  15.497700 -11.573300   7.387810  41.266900  38.950800 -68.500300 -34.309700   0.001932   0.001431 -12.154800  -0.004763  -0.003786 -32.852800   4.993830  -7.677480 -27.154100  -0.007944  -0.001302 -19.007900  -0.004304  -0.001331 -28.529600  -2.053950   3.771830 -37.354300  -0.002384  -0.002836 -24.877900  -0.005488  -0.002858 -28.271300  -2.036890   3.781040 -34.542000  -0.006438  -0.009172 -23.005000  -0.005325  -0.009460 -35.087400  -2.471280   3.512550 -52.744900  -0.006695  -0.001476 -35.128100   0.002937  -0.004888   8.469040  -1.332210   8.270550  71.754300  15.211500  -1.862710  -1.606910  -7.672560  17.588000 -15.554400  -1.019200   1.841540 -36.220300  26.655200  60.430700  30.816000   0.004775  -0.002764  10.408000   0.000000   0.000497  31.677000   6.500540  10.396500  26.400900  -0.000839  -0.005343  18.480700  -0.000239  -0.000125  28.547700   2.928370   5.382410  38.615900  -0.003363  -0.004353  25.709200  -0.001341  -0.000355  28.225400   2.439530   4.537200  34.428500  -0.002976  -0.001660  22.929400  -0.003024  -0.000235  36.043800  -0.010430  -0.014335  54.065700  -0.002401  -0.006405  36.007800  -0.001232  -0.002198   3.116760  15.002000   3.851190   1.860770  -0.039867   8.077340  -2.635240  -3.014450   2.013390  -0.000000   0.000000  -0.000000   5.193620  13.746800  -3.862200   0.128128   2.507980  -9.920380  -2.263340  -4.915210   1.843190  -0.000000   0.000000   0.000000
 -2.061110  89.509300  -0.249970  -3.903000 -12.353100  -4.990600   1.163390   7.231440  -0.254485   2.388420  14.456100  -0.666637   0.999392  -1.086260   0.016012   1.643490  -2.200800   5.959270  -6.327000  -2.812620   1.143930 -73.715400  14.086400   2.338540  -1.034600  -5.505590 -25.383700  15.310300 -11.709600   7.486160  41.156900  38.850000 -68.255900 -34.349200   0.001946   0.001496 -12.174600  -0.004750  -0.003782 -32.869300   4.888510  -7.513530 -27.154200  -0.007913  -0.001210 -19.007900  -0.004292  -0.001253 -28.514900  -2.094640   3.850170 -37.176100  -0.002222  -0.002784 -24.759200  -0.005485  -0.002792 -28.248600  -2.076420   3.859980 -34.376600  -0.006476  -0.009216 -22.894800  -0.005320  -0.009494 -34.984900  -2.511880   3.591760 -52.595500  -0.006667  -0.001301 -35.028600   0.002928  -0.004770   8.455680  -1.358480   8.313690  71.748500  15.204500  -1.859100  -1.588470  -7.672970  17.542900 -15.551300  -0.993775   1.828560 -36.202100  26.641000  60.436500  30.832700   0.004774  -0.002764  10.416400   0.000000   0.000465  31.674400   6.494500  10.388800  26.398300  -0.000842  -0.005367  18.478700  -0.000239  -0.000123  28.547900   2.928210   5.377380  38.613400  -0.003363  -0.004359  25.709200  -0.001339  -0.000352  28.225500   2.439360   4.537140  34.414600  -0.002976  -0.001661  22.921900  -0.003023  -0.000238  36.043600  -0.010374  -0.014264  54.069200  -0.002402  -0.006426  36.007600  -0.001229  -0.002198   3.112090  14.994700   3.850060   1.850410  -0.026749   8.078490  -2.618210  -2.996170   2.017350   0.000000   0.000000   0.000000   5.188790  13.755100  -3.862540   0.105683   2.494570  -9.898070  -2.222950  -4.865590   1.827970   0.000000   0.000000   0.000000
